# xmcd CD database file
#
# Track frame offsets:
#	150
#	16401
#	32403
#	53163
#	71133
#	89990
#	110198
#	127350
#	151938
#	168844
#	188579
#	206563
#	225827
#	234921
#	251063
#	266184
#	289412
#	306252
#
# Disc length: 4437 seconds
#
# Revision: 0
# Processed by: cddbd v1.5.2PL0 Copyright (c) Steve Scherf et al.
# Submitted via: CDex 1.51
#
DISCID=07115312
DTITLE=Various Artist - Jazz Pop Edition - Female Voices CD2
DYEAR=2009
DGENRE=Jazz
TTITLE0=Joss Stone - The Chokin' Kind
TTITLE1=Viktoria Tolstoy - I Do Care
TTITLE2=Gabin featuring Dee Dee Bridgewater - Into My Soul
TTITLE3=Edc - Samba In Solitude
TTITLE4=Marisa Monte - Infinito Particular
TTITLE5=Mariza - Tasco Da Mouraria
TTITLE6=Chris Minh Koky - Every Breath You Take
TTITLE7=Dianne Reeves - Lovin' You
TTITLE8=Eliane Elias - They Can't Take That Away From Me
TTITLE9=Jason Miles - I Want You
TTITLE10=Kitty Hoff - Weisst Du Noch
TTITLE11=Sabrina Starke - Home Is You
TTITLE12=Joyce Cooling - One Again
TTITLE13=Sanne Salomonsen - Love Me Still
TTITLE14=Louise Setara - One Fine Day
TTITLE15=Gabin feat. China Moses - The Thousand And One Night
TTITLE16=Traincha: (They Long To Be) Close To You
TTITLE17=Angela McCluskey - Don't Explain
EXTD=YEAR: 2009
EXTT0=
EXTT1=
EXTT2=
EXTT3=
EXTT4=
EXTT5=
EXTT6=
EXTT7=
EXTT8=
EXTT9=
EXTT10=
EXTT11=
EXTT12=
EXTT13=
EXTT14=
EXTT15=
EXTT16=
EXTT17=
PLAYORDER=
